<svg width="21" height="22" xmlns="http://www.w3.org/2000/svg"><g stroke="#45484D" fill="none" fill-rule="evenodd"><path fill="#EEE" d="M.5.5h20v21H.5z"/><path d="M10 5h7M10 11h7M10 17h7" stroke-width=".5"/><path d="M6.167 3c-.374 0-.762.254-1.167.762C4.778 3.254 4.444 3 4 3c-.667 0-1 .56-1 1.143C3 4.532 3.667 5.484 5 7c1.333-1.524 2-2.476 2-2.857C7 3.57 6.726 3 6.167 3zM6.167 9c-.374 0-.762.254-1.167.762C4.778 9.254 4.444 9 4 9c-.667 0-1 .56-1 1.143 0 .389.667 1.341 2 2.857 1.333-1.524 2-2.476 2-2.857C7 9.57 6.726 9 6.167 9zM6.167 15c-.374 0-.762.254-1.167.762-.222-.508-.556-.762-1-.762-.667 0-1 .56-1 1.143 0 .389.667 1.341 2 2.857 1.333-1.524 2-2.476 2-2.857C7 15.57 6.726 15 6.167 15z" stroke-width=".4"/></g></svg>