<?xml version="1.0" encoding="UTF-8"?>
<svg width="514px" height="203px" viewBox="0 0 514 203" version="1.1" xmlns="http://www.w3.org/2000/svg" xmlns:xlink="http://www.w3.org/1999/xlink">
    <!-- Generator: Sketch 53.2 (72643) - https://sketchapp.com -->
    <title>Group</title>
    <desc>Created with Sketch.</desc>
    <g id="Page-1" stroke="none" stroke-width="1" fill="none" fill-rule="evenodd">
        <g id="Desktop-HD" transform="translate(-463.000000, -409.000000)">
            <g id="Group" transform="translate(463.000000, 413.000000)">
                <path d="M42.3320158,157 L42.3320158,33.0981595 L0,33.0981595 L0,4 L119,4 L119,33.0981595 L76.9031621,33.0981595 L76.9031621,157 L42.3320158,157 Z M106,121.807692 C106,97.4076923 125.483568,84.0346154 171.492958,79.3423077 C170.788732,69.0192308 165.624413,62.45 153.183099,62.45 C143.323944,62.45 133.464789,66.4384615 122.197183,73.0076923 L109.99061,50.25 C124.779343,41.3346154 141.446009,35 159.755869,35 C189.568075,35 206,51.8923077 206,87.5538462 L206,154.184615 L177.830986,154.184615 L175.248826,142.219231 L174.544601,142.219231 C164.685446,150.9 153.652582,157 140.507042,157 C119.380282,157 106,141.515385 106,121.807692 Z M138,119.069767 C138,126.511628 143.223022,130 151.532374,130 C159.604317,130 164.827338,126.27907 171,120.232558 L171,100 C146.071942,103.255814 138,110.232558 138,119.069767 Z M222,140.811538 L237.57868,119.226923 C248.200508,127.203846 257.878173,131.426923 267.791878,131.426923 C278.177665,131.426923 282.662437,127.673077 282.662437,121.573077 C282.662437,113.830769 270.860406,110.311538 258.822335,105.619231 C244.659898,100.223077 227.901015,90.6038462 227.901015,71.3653846 C227.901015,49.7807692 245.604061,35 272.748731,35 C290.687817,35 303.906091,42.2730769 314.055838,49.7807692 L298.477157,70.4269231 C289.979695,64.3269231 281.954315,60.5730769 273.692893,60.5730769 C264.72335,60.5730769 260.474619,63.8576923 260.474619,69.7230769 C260.474619,77.2307692 271.332487,80.0461538 283.370558,84.5038462 C298.241117,89.9 315,98.1115385 315,119.461538 C315,140.576923 298.241117,157 266.847716,157 C251.505076,157 233.80203,150.430769 222,140.811538 Z M330.977077,111.7 L330.977077,64.2765625 L315,64.2765625 L315,38.559375 L332.856734,37.14375 L336.851003,6 L365.515759,6 L365.515759,37.14375 L393.475645,37.14375 L393.475645,64.2765625 L365.515759,64.2765625 L365.515759,111.228125 C365.515759,124.440625 371.389685,129.867188 380.553009,129.867188 C384.312321,129.867188 388.541547,128.6875 391.595989,127.507813 L397,152.753125 C390.891117,154.640625 382.432665,157 371.154728,157 C342.255014,157 330.977077,138.832812 330.977077,111.7 Z M412.066398,170.356522 C414.185111,170.826087 417.245473,171.765217 419.83501,171.765217 C431.370221,171.765217 437.255533,165.66087 440.315895,156.504348 L441.963783,150.4 L397,37 L431.841046,37 C433.947015,44.3333333 438.666667,48.7306298 446,50.1918893 C446,50.1918893 467.856026,50.1918893 467.856026,50.1918893 C474.618675,48.7306298 478.935614,44.3333333 480.806841,37 L514,37 L473.509054,154.626087 C462.444668,183.973913 449.967807,199 422.424547,199 C415.362173,199 410.653924,198.06087 405.945674,196.652174 L412.066398,170.356522 Z" id="Tasty" fill="#191919" fill-rule="nonzero"></path>
                <polyline id="Path-3" stroke="#191919" stroke-width="8" points="424 53 424 22 440 22 440 61"></polyline>
                <polyline id="Path-4" stroke="#191919" stroke-width="8" points="440 22 440 -3.55271368e-14 456 -3.55271368e-14 456 70"></polyline>
                <polyline id="Path-5" stroke="#191919" stroke-width="8" points="456 27 472 27 472 72"></polyline>
                <polyline id="Path-6" stroke="#191919" stroke-width="8" points="472 30 472 5 487 5 487 67"></polyline>
            </g>
        </g>
    </g>
</svg>